<svg xmlns="http://www.w3.org/2000/svg" xmlns:xlink="http://www.w3.org/1999/xlink" viewBox="0 0 475 305">
  <g id="tab" style="isolation: isolate">
    <path d="M120,51c9.71,1.61,17.34,3.52,23,9-.32.88-.1.49-.5,1-.83,1-.72.83-2.5,1-6-4.39-27.38,1.43-32,3-8.66,2.94-17.08,5.72-26,9l-2,2c-1.32.75-2.1.36-3.5,1-2.92,1.34-6,3.75-9,5-4.88,2.07-9.43,2.61-14,5a54.43,54.43,0,0,0-9,6c-.47.41-.9,1.74-1.5,2H39c-1.55.45-3.24,1.52-5,2v-.5c2.61-2.63.76-7.31,1.5-10,.52-1.89,3.09-5,4-7,1.76-3.87,1.74-9.45,3-13,.73-2.06.15-5.13,2-6h4L48,61c-1,.39,1,.5,1,.5,2.67,1.83,13.21,2.78,18,1.5,10.91-2.92,24.51-4.06,35-7C108.35,54.22,116.06,55.07,120,51Z" fill="none" fill-rule="evenodd"/>
    <path d="M144,63c-1.62-.41-.76.25-1.5-1l.5-.5h1Z" fill="none" fill-rule="evenodd"/>
    <path d="M125,122a10.32,10.32,0,0,1,6.5,9c-2,3.37.59,7.77-2.5,10-1.68,1.13-3.81.69-6,1.5-4.12,1.52-8.31,3.21-13,5-6.72,2.56-14.16,6.56-21,9L79,158v-1c1.55-2.08,1.22-4.44,2.5-7,1.87-3.76,8.1-11.17,11.5-13.5C102.17,130.21,116.17,128.59,125,122Z" fill="none" fill-rule="evenodd"/>
  </g>
  <g id="arch" style="isolation: isolate">
    <path d="M134,118c-4.86.34-14.68,7.28-19,9.5-2.31,1.19-5,.81-7.5,2-10.67,5.1-16.64,7.89-23,17.5-2.19,3.31-5.14,6.84-5.5,12-7.67.09-11.81-1.87-17-3.5l-5,.5c-3.56-1.07-4-5.49-9-6l-.5-3C38,142.14,33.19,131.07,20,130c-.18-11.68,6.4-15.79,10.5-23,1.22-2.14,1.44-6.89,2-9,9.36-2.74,16.16-8.47,24-12.5,1.94-1,3.8-.59,6-1.5,2-.82,4.37-3.1,6.5-4,1.33-.57,3.63-.29,4-.5l2.5-3c1.21-.75,3,.2,4.5-.5l1.5-2c5.17-2.54,10.6-2.79,16-5,8.51-3.48,19.2-7.18,28-10,3.21-1,11.56.45,14,.5,2.43,3.58,7,4.46,10.5,7,5.08,3.71,9.53,12.44,11.5,19.5.78,2.81,2.66,10.32,1,13-2,6.13-12.56,11.78-19,14v-2.5c.26-.47,1.75-13.34,1-14.5-.81-2.34-2.65-2.79-4-4.5l-.5.5C134,95.94,133.32,109.06,134,118Z" fill="none" fill-rule="evenodd"/>
    <path d="M131.5,70c-.7,2-1.88,2.59-2.5,5,1.32.82,3.81,2.66,5,2,1.58-.75,2.39-1.22,3-3A43.66,43.66,0,0,1,131.5,70Z" fill="none" fill-rule="evenodd"/>
    <path d="M18.5,141.5c6.67,4.42,11.13,12.19,17.5,17,4.47,3.37,9.55,6,14,9.5l2.5,4c1.71,1.2,3.41,1.32,5,2.5,4.24,3.15,7.52,7.89,12,11l7,3.5c1.21,1.78,1.34,5.08,2.5,7,5.19,8.54,9.13,18.75,14,28H88.5c-4.81-3.18-12.47-2.67-18.5-4.5-13.5-4.09-28-6.44-40.5-11.5-4.79-1.94-16.85-4.23-17.5-9.5,1.91-1.85,1.24-7.62,2-10.5s1.32-7.93,2-11V164.5C17.7,156.82,19.08,150.22,18.5,141.5Z" fill="none" fill-rule="evenodd"/>
    <path d="M259,184.5a21.1,21.1,0,0,1,6,1.5c.19-1.9,6.14-18,7-18.5,2.87,3.34,8.56,2.48,12.5,3.5-.86.82-2.59,1.28-3,2.5s.44,13.66.5,16.5a7.62,7.62,0,0,0,4.5,1,12.63,12.63,0,0,1,6.5-3c0-3.88,2.29-9.18,6-9.5,2.07,2.76,7.59,7.68,7,12.5-.89,7.28-7.66,10.29-10.5,15.5-1.13,2.08-.79,4.95-2,7-2.94,5-7.64,9.32-11,14-7.81,10.88-15.23,22.22-22.5,33.5-5.18-.94-11.7-.32-18.5-.5-.69,0-.8.76-2,.5-5.58-1.21-13.12-1.75-18.5-3-5.65-1.32-14,1.21-16.5-3,2.7-3,3.18-7.58,5.5-11l3.5-3c2.2-3.24,6.22-12.09,7-16,.3-1.52-.87-2.5-.5-4,.66-2.69,3.38-7,4.5-9.5.58-1.3.45-4.66,1-6.5,1.26-4.19-2.14-5.88-1.5-9a108.94,108.94,0,0,0,2-22.5c-.33-3.5-.67-7-1-10.5.88-2.82,2.73-5.71,3.5-9,3.72.9,5.25-3.44,9.5-4,.59.4.84.39,2,.5l1,1c-4.87,7.33-4.4,7.14-4,18.5,1.79.59,2.42,1.47,4.5,2,1-1.43,3.06-1.71,4-3l1.5-6c.91-2.13,2.79-3.68,4-5.5.88.32.49.1,1,.5,1.11.27,8.58,4.79,9,5.5C256.07,167.07,258.66,178.34,259,184.5Z" fill="none" fill-rule="evenodd"/>
  </g>
  <g id="quarter" style="isolation: isolate">
    <path d="M33.5,126c2.2.19,5,.88,6.5,2-5.48-.32-6.32.52-6,6h.5c1.17,3.59,10.24,11.92,13.5,13.5l3.5.5c2,1.12,4,4.13,6,5.5S61,154,64,155c2.44.84,4.79,3.23,8,4,3.54.85,13.77-3,17-4,6.09-1.81,10.47-2.65,16-5,2.72-1.16,5.52-3.62,8.5-4.5l6-.5c3.59-1.05,6.49-3.09,10.5-4v4.5c-1.46,2.26-1,6.87-1,10.5v17c-.37,1.57-1.8,4.43-1,7l1.5,1.5c.41,1.2-1.94,9.12-2.5,9.5-1.73-1.08-4.42-.67-6.5-1.5-2.6-1-6-3.07-8.5-4l-5-.5c-3.21-.88-6.58-2.54-9.5-3.5l-5.5-1c-2.15-1-3.36-3.92-5.5-5l-6.5-1L77,171c-2.11-1.12-4.9-.87-7-2-2.44-1.32-4.67-4.5-7-6s-6.65-.89-9-2.5-4.32-6.07-6.5-8-5-1.48-7.5-3c-4.8-2.87-15.55-12.66-16.5-19C27.2,129,31.38,129.25,33.5,126Z" fill="none" fill-rule="evenodd"/>
    <path d="M133.5,129l3.5.5v.5h-3.5Z" fill="none" fill-rule="evenodd"/>
    <path d="M226.5,182v1.5c.93.5,1.91,1,3,1.5-.48,3.1.35,6.94,0,9-.31,1.79-2,3.57-2.5,5-1.22,3.75-.33,7.52-1.5,11-1.22,3.63-3.74,7.58-5,11l-.5,6c-1.54,4.2-3.94,10.21-6.5,14l-3,2.5c-2.44,3.78-1.87,11.48-7,12.5-3.62-2.65-6.7-.54-11.5-2-1-.32-4.59-.81-6-1.5-.82-.4-2.17-2.15-3-2.5-3.36-1.4-6.65-.46-10-1.5-3-.92-5.33-3-8-4-4.67-1.79-8.49-2.15-13-4-.79-.33-1.7-1.72-2.5-2H145c-1.37-.58-2.52-3.12-4-3.5l-4,1c-2.95-.4-7.24-3.05-10-4-4.08-1.41-7.51-.59-12-2-3.56-1.11-8.23-2.85-12-4-2.69-.82-7.18,0-9.5-1.5-4.76-5-6.47-15.54-10-22-2.44-4.45-4.58-4.3-8.5-7L71,190c.47-2.58.86-3.45,4-3.5,1.63,1.84,6.46,4.94,9,5.5,1.82.4,2.26-1.49,4-.5l4.5,6c2.35,1.5,7.81,1.82,10.5,3,1.51.66,3.07,2.35,4.5,3,9.26,4.23,18.55,7,28,11,.15,3,.49,8.1,1.5,11,1.52,0,1.37.38,2,0,1.91-2.1.32-6,0-9h.5c2.89,2.36,6.44,1.53,11,2.5,17.15,3.66,32-11.53,27-29.5-3.69-13.17-13.82-20.69-24-27.5-1.63-1.09-2.42-2.78-4.5-3.5v.5c1.88,2.64,3.71,15.41,2.5,19.5-.47,1.6-2,3.41-2.5,5-1.23,3.85.14,6.54-4.5,7-1.41.93-5.24.56-7.5.5v-.5c4-6.14.61-30.66,3-39,1.66-5.81-1.42-14.75,3-17.5a6.26,6.26,0,0,0,6,0c8.47,4.93,23.42,5.61,32.5,11.5,2.69,1.74,4.91,5.12,7.5,7,4.87,3.54,12.09,7.18,15,12.5l.5,3C208.56,174.79,215.83,181.92,226.5,182Z" fill="none" fill-rule="evenodd"/>
    <path d="M138,152c.4.51.18.14.5,1H138Z" fill="none" fill-rule="evenodd"/>
  </g>
  <g id="toeCap" style="isolation: isolate">
    <path d="M161,128c2.8.25,5.41,2.17,7,1.5l1.5-.5c.1-5.61-2-18.13,6.5-18.5,1.53.89,4.15.33,6,1,4.63,1.67,16.4,5.74,16.5,11.5a17.53,17.53,0,0,0-4.5,6c-.83,2.3.62,5.9,0,7-.44.78-1.73.85-3,1a16.86,16.86,0,0,0,.5,4,12.48,12.48,0,0,1,2.5,2c6.11-2.11,9.92-8.69,14-13,.88.32.49.1,1,.5,3.71,1.2,5.49,5,8,7.5-.34,4.08-3,5.91-4,9s.87,7.7.5,10-2.17,3-2.5,6c.9.78.64,1,2,1.5.84.57,2.45.53,4,.5.12-1.88,9.45-18,10.5-18.5H230c1.73,2.12,4.35,2.18,5,5.5h.5l-.5.5c-1,2.51-2,1.14-4,2.5-1.26.84-4.5,5.61-5,7-1.94,5.41,1.16,12.57.5,17a27.11,27.11,0,0,0-4.5,3c-8-1.71-13.83-7.9-17.5-14l-.5-3c-.21-.4-5.5-6.14-6-6.5-10.39-7.61-19.63-15.29-33-20L151,136c-1,.25-1.69,1.9-3.5,1.5-1.51-.34-2.5-1.43-5.5-1.5a93.5,93.5,0,0,1,2-22.5c4.49-2.48,8.9-7.25,15-7.5l3,3C160.92,114.12,161,121.45,161,128Z" fill="none" fill-rule="evenodd"/>
    <path d="M133.5,118q-1,5-2,10c-2.56-1.38-5-1.24-5-5.5,1.77-1.76,2.19-3.66,5.5-4C132.54,118.12,132.47,118.2,133.5,118Z" fill="none" fill-rule="evenodd"/>
    <path d="M444,198c7.76,2.21,15.56,23.4,11,34-4.3,10-15,15.73-25,20-8.21,3.52-18,3.19-27.5,5.5-4.62,1.12-10.77,3.14-15,4.5h-7c-.84.21-2.75,1.3-3.5,1.5-6,1.63-10.44-1.45-16.5,0-3.63.87-10,1.34-13.5.5-7.37-1.77-17.56,1.3-23.5,0-5.21-1.14-14.56-.43-19,.5-3.23.68-9.91-.54-13-1l-6,.5c-1.25-.19-3.25-1.29-5-1-1.48.25-5.25,1.1-7.5.5-4-1.08-7.46-2.47-13-2.5v-1c3.48-1.6,5.4-7.84,7.5-11,4.25-6.4,8.61-12.58,13-19,1.68-2.46,4.58-4.76,6-7.5.33-1.5.67-3,1-4.5,1.62-3.59,5.88-9.45,9.5-11,.95.47.58.19,2,0v3c1.9,3.83-5,8.91-6.5,13-2.29,6.3,3.52,12.94,6.5,16,7,.44,15.25-1,19.5-6,2.19-2.58,4.85-6.09,8-7.5h5c1.23-.48,2.86-2.24,4.5-2.5,3-.49,8.51,2.11,13,1s11.17-1,17-1h7c.82-.26,2.18-1.75,3-2,3.84-1.18,9.33,1.35,15,0,.66-.16,2-1.07,3-1,1.27.08,2.8,1.5,5,1a21.45,21.45,0,0,1,3-1h7c.82-.27,2.18-1.74,3-2h6C428.07,215.08,443.76,210.45,444,198Z" fill="none" fill-rule="evenodd"/>
  </g>
  <g id="sole" style="isolation: isolate">
    <path d="M192,254c5.43-.06,8.44,1.14,12,2l4-.5c.88.33,1.74,2.12,3,2.5h11c5.18,1.29,13.43,1.6,19,3,9.07,2.27,15.92-2.37,23-.5,2.62.69,7,1.8,10,2.5h18c10.06,2.29,24.75,1,36.5,1,26.86,0,51.31-1.56,73.5-7,5.8-1.42,9.81-.52,15.5-2,16.16-4.21,42.41-14.31,38-36.5h.5v.5a17,17,0,0,1,4,5.5c1.17,3.38,4.91,18.8,3,24-3.47,9.43-9.15,16.79-17.5,21.5-1.54.87-3.09,3-4.5,4-1.7,1.19-3.64,1-5.5,2-3.3,1.71-7.11,4.52-10.5,6-7.7,3.36-15.46,3.94-24,6.5-27.07,8.13-60.45,10.32-95.5,10.5a10.57,10.57,0,0,1-.5-3.5h-1.5c-2.79,4.79-7.21,3.73-14.5,3.5-2.33-1.82-7.31,1.18-12,0-1.45-.36-3.53-1.8-5-2-2.83-.38-7.84,2.29-12,1-8.21-2.55-21.76-.54-32-2.5-.63-1.1-1.87-3.83-3-4.5-2.87,2.82-9.22,1.93-14,1.5-1.13-1.85-2-2.89-5-3-2.19,1.45-7.56.24-10,0-1.07-1.78-2.32-3.72-5-4-2.11,1.92-6.84.33-10,0-.93-1.55-2.42-4-4.5-4.5-2.71,2.85-6.68,1-11.5.5a6.82,6.82,0,0,0-4-3.5c-.79.88-3.39,1.63-5.5,1-3.35-1-8-3.06-11-4-4.3-1.35-9.35,0-13.5-1.5V272c-7.13.14-11.67-1.49-16.5-3h-11c-1-.31-4-1.68-5-2-4-1.24-7.54.41-11-1-.5-.2-2-1.81-2.5-2-3.23-1.21-4.43,2.11-7.5,1-1.89-.68-4.89-3.06-7-3.5-1.11-.23-4.5,1-6.5.5-1.74-.45-4.06-2-5.5-2.5-1.22-.44-3.06.42-3.5.5l-10-1.5c-.87-.43-1.89-2.13-3-2.5-2.56-.86-5.6.9-7.5.5-3.87-.82-7.57-4.28-10.5-6-1.16-.68-2.5.06-4-.5-2.88-1.08-6.53-4.95-8-7.5-1.9-3.29-1-10.6-1-15.5s.16-7.55,1-11c1-4.11-.81-8.33-1.5-10.5.33-2,.67-4,1-6H12c2,2.4,4.83,2.61,8,4,3.71,1.62,8.52,4.14,12.5,5.5l11,2.5c10.18,4,23.14,6.35,34,9.5,4.15,1.2,7.88,1.58,11.5,2.5h4l.5,1.5H99c2.52.65,6.56,1.06,9.5,2,2,.64,5,2.38,7,3h5c1,.32,4,1.66,5,2h3c2,.82,5.7,2.93,8,3.5l6-.5,2.5,3h4.5l2,2c1.83.86,3.14.17,5,1,2.53,1.13,6.22,3,9,4,1.64.61,7.21.23,8.5,1a19.94,19.94,0,0,0,2,2.5c2.38,1.22,4.27.54,7,1.5,3.26,1.15,4.37,3.32,9,2.5Z" fill="none" fill-rule="evenodd"/>
    <path d="M455,217c.38.54.3.47.5,1.5H455Z" fill="none" fill-rule="evenodd"/>
  </g>
  <g id="toeVamp" style="isolation: isolate">
    <path d="M299,207a16.86,16.86,0,0,1-4-.5V206c.4-.51.18-.14.5-1,5-3.21,9.59-8.64,9.5-17a27.78,27.78,0,0,1-5-8h1c.81,1.16.73,1.18,2.5,1.5-1-4.43,8.54-18.55,13.5-19,1.1-.72,7.09-1.18,9-.5,1.58.57,2.67,2.66,4,3.5,3.81,2.4,8.46,3,13,4.5,2.12.69,4,2.32,6,3,10.63,3.68,21.78,5.13,31.5,9.5,2.54,1.14,5-1.1,7.5,0l3,3c.92.22,4.17-1,6-.5l20,5h11c2.7.88,15.14,4.76,16,6.5V201c-2.7,3.56-4.13,8.19-8,10.5l-5,1c-1.75.67-3.31,2.91-5,3.5h-4c-1,.3-2.14,1.71-3,2h-7c-.92.29-2.44,1.7-3.5,2H401c-5.07,1.19-12.82.49-19,1.5-1.83.3-3.44-1.44-6-.5-.85.31-2.65,1.67-4,2H350.5a32.85,32.85,0,0,1-8,1l-7-.5c-3.63.94-10.51,3-13.5,5-1.2.79-1.6,2.34-2.5,3.5-1.55,2-5.72,4.36-8,5.5-3.34,1.67-9.89,2.76-12.5,1a11.37,11.37,0,0,1-6.5-6.5c1-2.08-1.11-5.68,0-9.5C294.08,217,298.76,213.44,299,207Z" fill="none" fill-rule="evenodd"/>
  </g>
  <g id="logo" style="isolation: isolate">
    <path d="M128,188v6.5c4,.76,3.79,3.17,3.5,8,1.51,2.34.68,8.68,2,12H132c-3.6-2.38-11.22-4.11-15.5-6-4.94-2.19-9.92-6.27-15-8.5-1.92-.84-8.18-1.42-9.5-2.5-.46-.38-.47-1.61-1-2a42.86,42.86,0,0,0-5.5-3c-2.34-1.21-6.15-.95-8.5-2.5-4.37-2.88-9.29-5.83-13.5-9l-6-6.5c-1.6-1.19-4-1.62-5.5-3-1.71-1.62-2.41-4.21-4.5-5.5-8.88-5.46-15.41-11.41-22.5-18.5-2.28-2.28-6.26-4.34-7-8,1.41-1.93,1.67-10.12,3-11,6.49,5.71,11.32,14.09,18.5,19,11.31,7.74,23,16.42,35.5,22.5,3.09,1.5,6.52,1.94,9.5,3.5L88,177h4c1.12.45,3,2.08,4.5,2.5H100c.6.24,1.76,1.76,2.5,2H109c1.07.47,2.27,2.48,3.5,3,2,.86,3.76-.58,5.5,0l1.5,1.5A20.47,20.47,0,0,0,128,188Z" fill="none" fill-rule="evenodd"/>
    <path d="M139,217.5c-.13-6.26-1.9-17.93-4-23,2-.66,2.05-1.32,2-4,1.51.26,1.74,1.12,3,1,5.64-.55,13.39-13,11.5-21.5-1-4.54-2.36-7-2.5-12h.5c1.86,1.84,4.17,2,6.5,3.5,4.6,3,14.82,13.27,17.5,18,8.19,14.47,5.27,34.06-9.5,40h-5.5C151,221.11,144.12,218.41,139,217.5Z" fill="none" fill-rule="evenodd"/>
  </g>
  <g id="inside" style="isolation: isolate">
    <path d="M174,21.5c6.57.14,11.84.23,18-1,1.12,2.13,4.43,2.42,5.5,4.5.33,1.83.67,3.67,1,5.5A93,93,0,0,1,204,45c1.31,5.19,1,8.65,2.5,13,1.61,4.66.45,15.07-2.5,17-2.22-1.66-3.47-.9-3.5-5,1.17-1,1.39-1.93,1.5-4-2.72-3-2.75-4.18-9-4-1.21-1.89-3.33-3.13-4.5-5-4-6.39-5.44-14.41-8.5-21.5C178.16,31.23,174.84,26.4,174,21.5Z" fill="none" fill-rule="evenodd"/>
    <path d="M89,43h5v.5c-1.86,1.22-4.73,4.29-5.5,6.5h6c3-1.91,9.18-.69,12.5-2a87.29,87.29,0,0,1,10.5-3.5c3.86-.92,10.65.66,13.5,1.5l6,1c6.87,2.51,11.44,8.72,15,14.5,1.76,2.86,2.12,6.23,4,9,2.69,4,10.43,4.31,12.5,8.5l.5.5c-1.73.75-5,6.8-6.5,5.5-3-2.23-4-7.83-6-11-2.9-4.51-18.68-19-24-20.5-1.36-.4-3,1-5.5.5-8.37-1.84-13.34-.26-19.5,2.5-.29.13-3.26-.81-4.5-.5-3,.74-6.2,1-10,2-5.54,1.39-11.78,1.44-18,3-5.18,1.3-14.6,3.81-22,2-1.83-.45-3.56-1.32-6-1.5-1.19-1.8-2.74-2.68-3.5-5,1.44-1.09,1.9-2.54,3-4,1.73-2.29,6.63-4.59,9.5-5.5h7C69,45.53,84.65,46.1,89,43Z" fill="none" fill-rule="evenodd"/>
  </g>
  <g id="tongue" style="isolation: isolate">
    <path d="M153,9c1.54-.05,3.17-.07,4,.5,2.47.86,3.09,2.81,5,4l2.5.5,5.5,6c1.42.88,2.95.85,4,2,2.55,2.8,2.91,7.81,4.5,11.5s4.11,7.93,5.5,11.5c2.62,6.73,3.92,13.33,9.5,17-1.05,3.15-1.45,5.84-4,7.5-4,2.61-11.58,3-15.5,5.5-1.6,1-3.71,3.53-5.5,3-4.07-1.32-10.26-4.19-12.5-7.5-5-7.42-6.87-16.8-14.5-21.5-2.57-1.58-5.23-1.53-8.5-2.5-16.39-4.88-27.06,3.4-44.5,3.5V49c2.33-1.5,3.31-4.59,5.5-6,2.83-1.82,6.28-1.76,9-3.5s5-5.24,8-7c2.49-1.45,4.89-1.41,7-3l3-4,7.5-1c4-1.88,14-6.29,17-9,1.35-1.21,2-3.46,3.5-4.5C150.37,10.06,151.87,10.09,153,9Z" fill="none" fill-rule="evenodd"/>
    <path d="M200.5,71c.4.51.18.14.5,1h-.5Z" fill="none" fill-rule="evenodd"/>
    <path d="M174,110.5c.78-9.59,9.57-14,14-20,3.06-4.19,6.22-8.32,9-12.5l.5.5a25.83,25.83,0,0,1,7.5,6c.66.87,1.15,2.93,2,3.5h3c3.1,1.36,6.08,4.37,9.5,5.5-.2-1.47-.82-.63.5-1.5v.5c1.08,1,.2,1.11,1,2.5s2.81,1.52,4,2.5c1.58,1.31,3.07,4.07,4,6h-1a5.19,5.19,0,0,1-3,1c-.63-2.74-5.52-9.71-8.5-10-3.71,3.38-10.11,3.74-10,11-1.55,1-1.46,1.73-4,2-1.85,1.17-4.47.35-7,1l-11.5,4C183,112.57,176.56,110.68,174,110.5Z" fill="none" fill-rule="evenodd"/>
    <path d="M177.5,84.5c.4.51.18.14.5,1-4.51,3.56-12.73,17.3-15.5,23-2.59-1.09-4-1.64-4-5.5,2.79-4.22.66-10,4-15v.5c1.13,1.75,1.08,3.62,2.5,5V93c2.53-1.47,3.8-3.91,6-5.5C172.87,86.15,175.69,85.94,177.5,84.5Z" fill="none" fill-rule="evenodd"/>
    <path d="M163.5,94l-.5,1C163.87,94.3,163.5,94,163.5,94Z" fill="none" fill-rule="evenodd"/>
    <path d="M234,111.5l7.5.5c1.33,4.06,5.74,5.79,8,9-4.82.08-9.75,1.9-13.5,3.5v-1c.92-1.16,1.29-3.16,1.5-5-1.73-.65-2.25-1.94-3-3.5a12.82,12.82,0,0,0-4,2v-1a8.69,8.69,0,0,1-1-3h1C231.38,112.34,233.09,112.16,234,111.5Z" fill="none" fill-rule="evenodd"/>
    <path d="M185,112.5c3.16.32,7.92,2.41,9.5,4.5l.5.5h-1C191.85,115.1,187.33,114.74,185,112.5Z" fill="none" fill-rule="evenodd"/>
    <path d="M222.5,115l1.5,11.5c-.66,2.05-5.69,10.66-7.5,11.5-1.41-3.91-6.41-5.12-7.5-9,1.93-2.56,4.35-12.26,6.5-13.5C216.82,114.63,220.35,114.94,222.5,115Z" fill="none" fill-rule="evenodd"/>
    <path d="M252,120h1v.5C252.12,120.18,252.51,120.4,252,120Z" fill="none" fill-rule="evenodd"/>
    <path d="M260,127c3,1.09,3.92,4.09,7,5.5-.51.4-.14.18-1,.5-1.43,1.16-3.41,1.48-6,1.5-1.15-2.22-2.89-2.84-4.5-4.5.88-.32.49-.1,1-.5-1.68.06-1.23.55-2.5-.5C256.69,129,258.65,128.34,260,127Z" fill="none" fill-rule="evenodd"/>
    <path d="M247.5,128H252v.5c-3.7,3.13-4.41,8.2-7.5,12L231,147l.5.5a11.64,11.64,0,0,0,4,3v.5c-2.75.88-3.43,3.05-6,4v-.5c-1.85-1.13-2.89-2-3-5,3.1-3,4.39-9.71,5.5-14.5C233.41,134.67,246.67,128.77,247.5,128Z" fill="none" fill-rule="evenodd"/>
    <path d="M257,130a1.46,1.46,0,0,0,2,0Z" fill="none" fill-rule="evenodd"/>
    <path d="M280.5,139c3,.07,4,1,6,2v.5c-3,.43-4,2-7,2.5a9.84,9.84,0,0,0-2-3v-1A16,16,0,0,0,280.5,139Z" fill="none" fill-rule="evenodd"/>
    <path d="M265,150c-4.7.32-11.68,4.27-13,8h.5c1.53,1.68,3.65,3.7,6.5,4,.54-.38.47-.3,1.5-.5v.5c-.75.81-.78,1-1,2.5-5.81-.34-8.3-1.95-12.5.5v-1c2.8-3.17,5.77-12.85,6.5-18,4.63-.54,9-3.7,13-5,1.61-.52,3.85-.1,5-.5v1A10.55,10.55,0,0,0,265,150Z" fill="none" fill-rule="evenodd"/>
    <path d="M297.5,145.5c4.37.37,12.42,1.2,15.5,3.5h-.5c-4.3,4.15-9.52,8.68-15,11.5v-2C299.34,155.68,297.63,148.82,297.5,145.5Z" fill="none" fill-rule="evenodd"/>
    <path d="M289.5,148.5h1c-4.35,8.68-14.23,11.22-18.5,19.5h-.5v-1.5c1.32-2,2.86-9.08,3.5-11.5,2.5-1.37,5.39-3.39,8-4.5C285.19,149.57,287.74,149.8,289.5,148.5Z" fill="none" fill-rule="evenodd"/>
    <path d="M238,150h3v.5h-.5v.5A12.92,12.92,0,0,1,238,150Z" fill="none" fill-rule="evenodd"/>
    <path d="M238.5,153.5c.4.51.18.14.5,1h-.5Z" fill="none" fill-rule="evenodd"/>
    <path d="M324.5,154.5a88.72,88.72,0,0,1,8,6c-.43,1-.22-.08-1,.5.89,1.8,1.45,2.28,1.5,5.5h-1c-1-.9-2.46-1.11-3.5-2-.33-.28-.66-1.8-1-2-2.81-1.65-3.85,1.56-4.5-2.5C324.07,158.82,324.39,156.63,324.5,154.5Z" fill="none" fill-rule="evenodd"/>
    <path d="M319.5,158a8.5,8.5,0,0,1,1.5,4,14,14,0,0,0-12.5,7c-.33,1.33-.67,2.67-1,4l-3.5,2.5c-.08,2-.09,5.44-2,6-1.29-1.88-2.67-2-3-5,2.67-2.53,4.52-6.32,7.5-8.5,2-1.47,3.79-2.3,5.5-4l4.5-5C317.87,158.26,318.52,158.87,319.5,158Z" fill="none" fill-rule="evenodd"/>
    <path d="M236,161c.38.54.3.47.5,1.5H236Z" fill="none" fill-rule="evenodd"/>
    <path d="M235.5,164a1.46,1.46,0,0,1,0,2Z" fill="none" fill-rule="evenodd"/>
    <path d="M284.5,166.5a2.93,2.93,0,0,1-.5,3.5c-1.08,1-2.29,1-4.5,1v-.5h.5C281.21,168.81,283.24,168.12,284.5,166.5Z" fill="none" fill-rule="evenodd"/>
  </g>
  <g id="laces" style="isolation: isolate">
    <path d="M196,59.5c2.27.24,3.6,1,5.5,1.5.11,1.77,1.05,5.46,1,5.5-.41,1.55-2.65,4.42-2,5,1.18,1.52,3.2,2.12,4.5,3.5,4,4.22,9.57,10.67,11.5,16.5H216c-2.58-2.41-5.2-1.84-8.5-3.5-3.47-1.75-5.27-8-11-10v.5c-3.78,2.81-5.7,8.15-8.5,12L179,99c-2.28,3.36-3.53,7.06-5,11-.91,2.46-6.26,8.53-4.5,11.5.9,1.36,1.89,1.77,2.5,3.5-2.74,1-2.87,3.34-6,4-.92-.58-2.11-.25-2.5-.5-1.44-.92-1.8-1.21-2-3.5-1.48-2.27-.81-11,0-13.5,2.19-6.76,6.64-13,10.5-18.5,1.93-2.75,4.79-5,6-8.5h-1c-1.54,1.19-3.91,1.36-5.5,2.5-2.45,1.76-3.84,4.86-7,6v-.5c-1.16-1-1.09-2.72-2-4V89c-.73,1.1-1.19,3.74-1.5,5l-.5-.5c-.4-.59-.39-.84-.5-2,1.58-2.57,1.34-5.68,3-8,.93-.74,2.52-.72,3.5-1.5s.28-2.11,1-3c.84-1,7.2-4.93,8.5-5.5,4-1.77,11.77-2.3,14.5-5,2-2,1.84-6.17,4-8C194.89,60.16,195.62,59.84,196,59.5Z" fill="none" fill-rule="evenodd"/>
    <path d="M137,78c-3.46.34-5,1.41-7.5-.5-2-2.57-.45-6.09,1.5-7.5a5.86,5.86,0,0,1,2.5-1,44,44,0,0,0,4.5,5C137.6,75.63,137.19,75.94,137,78Z" fill="none" fill-rule="evenodd"/>
    <path d="M131.5,195.5a19.27,19.27,0,0,1-3.5-1V174c3.79-6.06-.82-18.6,1-26.5,2.76-12,1.48-24.72,5-36.5-.17-3.33-.33-6.67-.5-10,.77-2.33,5.61-9.94,5.5-10h3l1.5,1.5c4.81,6-1.2,14.86.5,20.5l1.5.5-.5,1c-1.5,3.56-2.14,8.47-3,12.5l.5,4.5c-.84,4.54-1.38,11.39-2.5,16v10c-1,4.51-1,11.08-1,17v9c-1.48,6.28-4,14.15-2,22.5,1.52,6.4,3,11.43,3,19.5l-.5.5c-1.5-.26-3.5-.68-4.5-1.5,1.6-2.69-1.28-5.72-2-7.5-1.57-3.85.05-8.48-.5-12A66.73,66.73,0,0,1,131.5,195.5Z" fill="none" fill-rule="evenodd"/>
    <path d="M253.5,146c-.69,6.85-7.86,25.92-14.5,26-.51-.4-.14-.18-1-.5-4.1-8.7-.27-14.85,3-21.5-5.22.22-7.79.37-10-3,2.76-1.26,10.88-4.33,13-6,.65-.52,7.38-11.68,8-13h-4.5c-4.26,3.1-13.18,3.13-15.5,8-2.24,2.63-.86,6.44-2.5,10-.57,1.25-2.72,2.77-3.5,4-3.15,5-4.3,12.23-10,14.5-.84.57-2.45.53-4,.5-1.34-2.15-1.58-4.54-1.5-8.5-1.36-2.38,1.75-5.76,2.5-8a86.44,86.44,0,0,1,8.5-18.5c.48-.79,2.17-2.17,2.5-3,1.53-3.9-1.46-8.16-1.5-12H215c-2.18,5.11-3.89,12.24-7,16.5-.91,1.25-3,1.36-4,2.5-3.7,4.32-4,8.15-12.5,8a10.52,10.52,0,0,0-1.5-4.5c3.58-1.94,1.05-3,2.5-6.5,1.58-3.78,5.64-6.19,7-10.5-2.51-1.25-3.75-3.64-6-5-2.7-1.63-6.05-1.67-8.5-3.5,2.9-.34,4.76-1.76,7-2.5,4.15-1.38,9.48-1.53,13.5-2.5.34-.77,1.25-1.47,1.5-2-.2-.53-1.06-2.35-.5-3.5.68-1.39,9.74-6.67,12-7,1.07,2.33,5.87,9.68,8.5,10a9.83,9.83,0,0,1,2-1l-.5-.5c-.51-2-1.56-3-2.5-4.5h1c3.34,4.35,12.94,6.5,13.5,11.5.38.54.3.47.5,1.5l-.5.5c-2.95-1.11-8.57-.58-10.5,1-.38.54-.3.47-.5,1.5a5.86,5.86,0,0,1,1,2.5h.5a6.78,6.78,0,0,1,3.5-2c.71,2.25,2.23,2.87,3,5-.81,1-1.36,3.37-1,4v.5a52,52,0,0,1,18.5-4c.8,1,.87.27,2,1,1.52,1,2.25,3.22,3.5,4.5-.32.88-.1.49-.5,1-1.68,1.54-4.48,1.17-6.5,2.5h1c1.92,2.12,5,5,9,5,3.38-2.7,12.6-1.42,17.5-1,1.17,1.71,2.2,1.72,2.5,4.5.4.51.18.14.5,1a17.37,17.37,0,0,0-7,1l3,4.5c4.29-2.15,6.85-3.46,13-3,1.43,2,3.55,2,4,5,1.94,2.87,1,10.38.5,14h1c1.71-2.39,4.6-3.26,7-5L312,149c1,.53,6.48-.6,9-.5,1.05,1.55,2.05,1.71,2.5,4,1.56,2.05.55,7.92-1,10-.51-.4-.14-.18-1-.5l-1.5-4c-8.19,3.72-18,14.23-23.5,21-2.93,3.61-4.92,10.8-10.5,11.5-.36.28,0,.72-1,.5v-.5c-1.76-.59-1.86-1.42-3-2.5-.05-3.12.79-7.16.5-9.5-.1-.82-1-3.38-.5-5,.71-2.46,2.43-4.63,3.5-7.5h-1c-1.51,2.36-5.65,6.64-9,7-.65-1.78-1.22-1.88-3.5-2-.51.4-.14.18-1,.5-1.92,4.59-3.58,13.42-10,13.5-1.22-1.26-2.33-1.58-3-3.5.53-1.52-1.75-4.82-1-8,1-4.36,2.11-9.12,4-12.5h-.5a7.38,7.38,0,0,1-3.5,1c-1.39-2-4.05-2.67-5-5,4.21-1.52,7.62-7.72,13-6.5.44-5.42,4.85-6.07,6.5-10H271c-1.09.66-2.9,0-4.5.5C262.35,142.34,258.08,145.26,253.5,146Z" fill="none" fill-rule="evenodd"/>
    <path d="M289,148.5c-3.89,2.66-9.39,2.7-13,5.5-2.9,2.25-4,9.5-4.5,14h.5c4.63-7.68,15.55-10.46,18.5-19.5Z" fill="none" fill-rule="evenodd"/>
  </g>
  <g id="Shadow_Imagen" data-name="Shadow Imagen">
    <image id="Shadow_Imagen-2" data-name="Shadow Imagen" width="932" height="602" transform="translate(4 4) scale(0.5)" xlink:href="trainer1.png"/>
  </g>
</svg>
